<?xml version="1.0" encoding="utf-8"?>
<!-- Generator: Adobe Illustrator 21.1.0, SVG Export Plug-In . SVG Version: 6.00 Build 0)  -->
<svg version="1.1" id="Layer_1" xmlns="http://www.w3.org/2000/svg" xmlns:xlink="http://www.w3.org/1999/xlink" x="0px" y="0px"
	 viewBox="0 0 410 346" style="enable-background:new 0 0 410 346;" xml:space="preserve">
<style type="text/css">
	.st0{fill:#FFF;}
	.st1{fill:#32a0ef;stroke:#FFF;}
</style>
<g>
	<g>
		<g>
			<path class="st1" d="M347.2,97.3l-89.6,34.9l-10.7-79.5l-43.7,99.8l-88.8,34.2l60.4,28.5l-48.2,103l86.4-85l60.6,28.6l-9.3-80.5
				L347.2,97.3z"/>
		</g>
		<g>
			<g>
				<polygon class="st0" points="315.4,109.6 257.5,132.2 246.8,52.7 203.1,152.5 114.3,186.7 174.7,215.2 142,285.1 55,285 
					194.4,22.4 300,22.4 				"/>
			</g>
			<g>
				<polygon class="st0" points="345.9,285.1 276.2,285.1 264.2,181.3 318.1,126.7 				"/>
			</g>
			<g>
				<polygon class="st0" points="242.3,167.3 234.4,175.8 236.6,194.4 223.4,187.8 205.6,207 215.2,183.7 214,183 202,176.9 
					221.1,169.2 230.7,145.8 232.8,163.4 232.9,164.4 234.1,163.9 252.1,156.6 				"/>
			</g>
		</g>
	</g>
</g>
</svg>
